<?xml version="1.0" encoding="utf-8"?>
<!-- Generator: Adobe Illustrator 23.0.2, SVG Export Plug-In . SVG Version: 6.00 Build 0)  -->
<svg version="1.1" id="Calque_1" xmlns="http://www.w3.org/2000/svg" xmlns:xlink="http://www.w3.org/1999/xlink" x="0px" y="0px"
	 viewBox="0 0 250 250" style="enable-background:new 0 0 250 250;" xml:space="preserve">
<style type="text/css">
	.st0{fill:#FFFFFF;}
	.st1{fill:#FBB053;}
</style>
<path class="st0" d="M125,5C58.73,5,5,58.73,5,125c0,66.27,53.73,120,120,120s120-53.73,120-120C245,58.73,191.27,5,125,5z M125,227
	c-56.33,0-102-45.67-102-102S68.67,23,125,23s102,45.67,102,102S181.33,227,125,227z"/>
<g>
	<path class="st1" d="M92.67,179.63c-8.04,0.04-15.09-0.88-21.47-4.53c-7.43-4.24-8.23-11.31-1.94-17.19
		c3.68-3.44,7.86-6.33,10.88-10.49c5.68-7.82,8.74-16.2,5.88-25.91c-0.81-2.74,0.14-3.92,2.9-4.01c3.1-0.1,6.48-2.1,9.15-0.61
		c2.91,1.62,1.05,5.46,1.71,8.27c2.59,10.9,9.78,17.7,19.41,22.43c2.13,1.05,4.39,1.85,6.46,3.01c7.24,4.07,8.18,10.46,2.34,16.48
		c-6.37,6.57-14.6,9.51-23.3,11.3C100.48,179.26,96.19,179.82,92.67,179.63z"/>
	<path class="st1" d="M170.36,100.97c-2.97,0.13-4.74-0.95-6.47-2.14c-8.77-6.1-17.57-12.18-26.3-18.33
		c-4.16-2.93-4.05-4.01,0.61-6.23c9.64-4.61,19.35-9.08,28.97-13.74c3.59-1.74,6.69-1.52,9.97,0.82
		c8.94,6.38,18.02,12.56,27.01,18.87c3.34,2.34,3.36,3.63-0.11,5.31c-10.28,4.99-20.64,9.82-30.99,14.67
		C171.99,100.69,170.79,100.85,170.36,100.97z M171.46,84.15c2.08-0.49,5.1-0.66,4.83-3.76c-0.3-3.45-3.47-4.13-6.38-4.06
		c-2.38,0.05-5.3,0.64-5.08,3.66C165.08,83.55,168.43,83.7,171.46,84.15z"/>
	<path class="st1" d="M166.75,141.3c0.91-10.5,1.87-21,2.71-31.51c0.28-3.48,1.9-5.72,5.07-7.19c9.97-4.62,19.86-9.43,29.82-14.07
		c4.44-2.07,5.23-1.49,4.85,3.43c-0.84,10.96-1.81,21.9-2.65,32.86c-0.25,3.26-1.66,5.64-4.64,7.04
		c-10.35,4.88-20.67,9.8-31.06,14.6C167.12,148.2,166.45,147.29,166.75,141.3z M183.12,108.5c-0.02-1.42-0.57-2.97-2.9-3.06
		c-2.8-0.11-6.54,4.16-6.43,7.35c0.07,2.01,0.93,3.41,3.18,3.37C179.79,116.11,183.05,112.3,183.12,108.5z M192.73,125.91
		c-0.02,1.47,0.5,3.07,2.78,3.33c2.57,0.3,6.36-3.67,6.53-6.83c0.1-1.98-0.48-3.59-2.75-3.83
		C196.59,118.29,192.95,122.15,192.73,125.91z M189.82,112.09c-2.92-0.11-6.44,3.77-6.53,6.97c-0.06,2.01,0.62,3.51,2.89,3.62
		c2.65,0.12,6.35-3.91,6.39-6.94C192.6,113.73,191.79,112.34,189.82,112.09z"/>
	<path class="st1" d="M166.52,112.19c-0.93,10.35-1.83,20.71-2.81,31.06c-0.37,3.87-1.54,4.44-4.81,2.2
		c-9.18-6.32-18.26-12.78-27.44-19.1c-2.86-1.97-4.18-4.47-3.87-7.93c1.02-11.25,1.98-22.5,2.99-33.74
		c0.31-3.46,1.62-4.53,4.83-2.25c9.09,6.45,18.2,12.88,27.45,19.08C167.01,104.28,166.82,108.11,166.52,112.19z M161.94,110.37
		c0.08-3.45-2.84-7.65-5.3-7.77c-2.54-0.12-3.31,1.58-3.38,3.74c-0.09,3.08,2.92,7.4,5.29,7.49
		C161.09,113.93,161.73,112.13,161.94,110.37z M140.95,122.14c0.1-3.83-3.07-8.14-5.64-7.97c-2.23,0.15-2.95,1.67-2.97,3.69
		c-0.04,3.49,3.06,7.74,5.66,7.59C140.26,125.32,140.84,123.66,140.95,122.14z M159.9,133.98c0.06-3.45-3.02-7.67-5.6-7.54
		c-2.24,0.12-2.89,1.71-2.96,3.66c-0.14,3.46,2.92,7.63,5.57,7.49C159.11,137.48,159.86,135.99,159.9,133.98z M151.47,116.08
		c0.04-3.42-2.89-7.54-5.31-7.63c-2.52-0.09-3.24,1.64-3.32,3.74c-0.12,3.22,2.74,7.14,5.3,7.28
		C150.72,119.61,151.28,117.83,151.47,116.08z M143.01,97.71c-0.07-3.38-2.89-7.34-5.33-7.33c-2.51,0.01-3.21,1.74-3.22,3.88
		c-0.03,3.5,3.23,7.61,5.83,7.3C142.53,101.3,143.05,99.66,143.01,97.71z"/>
	<path class="st1" d="M89.25,197.56c-8.07,0.06-16.01-0.72-23.63-3.6c-2.94-1.11-5.75-2.49-8-4.72c-2.77-2.75-3.76-5.95-2.1-9.73
		c2.19-5,3.74-5.35,7.72-1.68c5.6,5.17,12.55,7.28,19.84,8.23c13.41,1.74,26.36-0.15,38.58-6.07c6.37-3.09,12.02-7.18,15.35-13.69
		c1.46-2.86,3.08-2.66,5.26-0.95c4.48,3.51,5.05,8.99,1.15,13.75c-4.35,5.31-10.19,8.56-16.39,11.18
		C114.95,195.39,102.3,197.52,89.25,197.56z"/>
	<path class="st1" d="M67.77,70.1c0.18-10.42,7.75-17.75,18.25-17.67c9.86,0.08,17.37,8.02,17.24,18.22
		c-0.13,10.32-8.02,18.01-18.21,17.76C75.15,88.17,67.6,80.17,67.77,70.1z"/>
	<path class="st1" d="M83.58,110.75c-4.13-0.16-9.42-0.84-14.11-3.75c-4.01-2.49-4.99-5.73-3.06-9.4c2.34-4.47,5.32-5.77,9.67-4.14
		c9.08,3.4,17.44,2.23,25.13-3.75c3.23-2.51,6.17-2.05,9.76,1.3c2.85,2.66,3.01,5.67,1,8.81c-1.89,2.95-4.71,4.9-7.8,6.44
		C98.61,109.05,91.15,110.77,83.58,110.75z"/>
</g>
</svg>
