<?xml version="1.0" encoding="utf-8"?>
<!-- Generator: Adobe Illustrator 23.0.2, SVG Export Plug-In . SVG Version: 6.00 Build 0)  -->
<svg version="1.1" id="Calque_1" xmlns="http://www.w3.org/2000/svg" xmlns:xlink="http://www.w3.org/1999/xlink" x="0px" y="0px"
	 viewBox="0 0 811.08 250" style="enable-background:new 0 0 811.08 250;" xml:space="preserve">
<style type="text/css">
	.st0{fill:#FFFFFF;}
	.st1{fill:#FBB053;}
</style>
<path class="st0" d="M125,5C58.73,5,5,58.73,5,125c0,66.27,53.73,120,120,120s120-53.73,120-120C245,58.73,191.27,5,125,5z M125,227
	c-56.33,0-102-45.67-102-102S68.67,23,125,23s102,45.67,102,102S181.33,227,125,227z"/>
<g>
	<path class="st1" d="M92.67,179.63c-8.04,0.04-15.09-0.88-21.47-4.53c-7.43-4.24-8.23-11.31-1.94-17.19
		c3.68-3.44,7.86-6.33,10.88-10.49c5.68-7.82,8.74-16.2,5.88-25.91c-0.81-2.74,0.14-3.92,2.9-4.01c3.1-0.1,6.48-2.1,9.15-0.61
		c2.91,1.62,1.05,5.46,1.71,8.27c2.59,10.9,9.78,17.7,19.41,22.43c2.13,1.05,4.39,1.85,6.46,3.01c7.24,4.07,8.18,10.46,2.34,16.48
		c-6.37,6.57-14.6,9.51-23.3,11.3C100.48,179.26,96.19,179.82,92.67,179.63z"/>
	<path class="st1" d="M170.36,100.97c-2.97,0.13-4.74-0.95-6.47-2.14c-8.77-6.1-17.57-12.18-26.3-18.33
		c-4.16-2.93-4.05-4.01,0.61-6.23c9.64-4.61,19.35-9.08,28.97-13.74c3.59-1.74,6.69-1.52,9.97,0.82
		c8.94,6.38,18.02,12.56,27.01,18.87c3.34,2.34,3.36,3.63-0.11,5.31c-10.28,4.99-20.64,9.82-30.99,14.67
		C171.99,100.69,170.79,100.85,170.36,100.97z M171.46,84.15c2.08-0.49,5.1-0.66,4.83-3.76c-0.3-3.45-3.47-4.13-6.38-4.06
		c-2.38,0.05-5.3,0.64-5.08,3.66C165.08,83.55,168.43,83.7,171.46,84.15z"/>
	<path class="st1" d="M166.75,141.3c0.91-10.5,1.87-21,2.71-31.51c0.28-3.48,1.9-5.72,5.07-7.19c9.97-4.62,19.86-9.43,29.82-14.07
		c4.44-2.07,5.23-1.49,4.85,3.43c-0.84,10.96-1.81,21.9-2.65,32.86c-0.25,3.26-1.66,5.64-4.64,7.04
		c-10.35,4.88-20.67,9.8-31.06,14.6C167.12,148.2,166.45,147.29,166.75,141.3z M183.12,108.5c-0.02-1.42-0.57-2.97-2.9-3.06
		c-2.8-0.11-6.54,4.16-6.43,7.35c0.07,2.01,0.93,3.41,3.18,3.37C179.79,116.11,183.05,112.3,183.12,108.5z M192.73,125.91
		c-0.02,1.47,0.5,3.07,2.78,3.33c2.57,0.3,6.36-3.67,6.53-6.83c0.1-1.98-0.48-3.59-2.75-3.83
		C196.59,118.29,192.95,122.15,192.73,125.91z M189.82,112.09c-2.92-0.11-6.44,3.77-6.53,6.97c-0.06,2.01,0.62,3.51,2.89,3.62
		c2.65,0.12,6.35-3.91,6.39-6.94C192.6,113.73,191.79,112.34,189.82,112.09z"/>
	<path class="st1" d="M166.52,112.19c-0.93,10.35-1.83,20.71-2.81,31.06c-0.37,3.87-1.54,4.44-4.81,2.2
		c-9.18-6.32-18.26-12.78-27.44-19.1c-2.86-1.97-4.18-4.47-3.87-7.93c1.02-11.25,1.98-22.5,2.99-33.74
		c0.31-3.46,1.62-4.53,4.83-2.25c9.09,6.45,18.2,12.88,27.45,19.08C167.01,104.28,166.82,108.11,166.52,112.19z M161.94,110.37
		c0.08-3.45-2.84-7.65-5.3-7.77c-2.54-0.12-3.31,1.58-3.38,3.74c-0.09,3.08,2.92,7.4,5.29,7.49
		C161.09,113.93,161.73,112.13,161.94,110.37z M140.95,122.14c0.1-3.83-3.07-8.14-5.64-7.97c-2.23,0.15-2.95,1.67-2.97,3.69
		c-0.04,3.49,3.06,7.74,5.66,7.59C140.26,125.32,140.84,123.66,140.95,122.14z M159.9,133.98c0.06-3.45-3.02-7.67-5.6-7.54
		c-2.24,0.12-2.89,1.71-2.96,3.66c-0.14,3.46,2.92,7.63,5.57,7.49C159.11,137.48,159.86,135.99,159.9,133.98z M151.47,116.08
		c0.04-3.42-2.89-7.54-5.31-7.63c-2.52-0.09-3.24,1.64-3.32,3.74c-0.12,3.22,2.74,7.14,5.3,7.28
		C150.72,119.61,151.28,117.83,151.47,116.08z M143.01,97.71c-0.07-3.38-2.89-7.34-5.33-7.33c-2.51,0.01-3.21,1.74-3.22,3.88
		c-0.03,3.5,3.23,7.61,5.83,7.3C142.53,101.3,143.05,99.66,143.01,97.71z"/>
	<path class="st1" d="M89.25,197.56c-8.07,0.06-16.01-0.72-23.63-3.6c-2.94-1.11-5.75-2.49-8-4.72c-2.77-2.75-3.76-5.95-2.1-9.73
		c2.19-5,3.74-5.35,7.72-1.68c5.6,5.17,12.55,7.28,19.84,8.23c13.41,1.74,26.36-0.15,38.58-6.07c6.37-3.09,12.02-7.18,15.35-13.69
		c1.46-2.86,3.08-2.66,5.26-0.95c4.48,3.51,5.05,8.99,1.15,13.75c-4.35,5.31-10.19,8.56-16.39,11.18
		C114.95,195.39,102.3,197.52,89.25,197.56z"/>
	<path class="st1" d="M67.77,70.1c0.18-10.42,7.75-17.75,18.25-17.67c9.86,0.08,17.37,8.02,17.24,18.22
		c-0.13,10.32-8.02,18.01-18.21,17.76C75.15,88.17,67.6,80.17,67.77,70.1z"/>
	<path class="st1" d="M83.58,110.75c-4.13-0.16-9.42-0.84-14.11-3.75c-4.01-2.49-4.99-5.73-3.06-9.4c2.34-4.47,5.32-5.77,9.67-4.14
		c9.08,3.4,17.44,2.23,25.13-3.75c3.23-2.51,6.17-2.05,9.76,1.3c2.85,2.66,3.01,5.67,1,8.81c-1.89,2.95-4.71,4.9-7.8,6.44
		C98.61,109.05,91.15,110.77,83.58,110.75z"/>
</g>
<rect x="516.2" y="294.98" style="fill:none;" width="2.43" height="2.43"/>
<g>
	<path class="st0" d="M263.77,58.22l-0.39-0.18c-2.12-0.95-4.56-2.44-7.26-4.41c-2.64-1.92-5.29-4.12-7.9-6.52
		c-2.58-2.37-5.06-4.86-7.39-7.39c-2.35-2.55-4.33-5-5.88-7.28l-1.16-1.71l1.74-1.11c2.52-1.6,5.96-2.41,10.22-2.41
		c1.33,0,2.37,0.13,3.18,0.4l0.69,0.23l0.38,0.62c2.54,4.11,5.67,8.4,9.29,12.75c3.64,4.38,7.38,8.44,11.11,12.07l1.3,1.26
		l-1.13,1.42c-0.67,0.84-1.71,1.45-3.08,1.81c-1.11,0.29-2.21,0.44-3.28,0.44H263.77z"/>
	<path class="st0" d="M264.2,56.22c-2-0.9-4.3-2.3-6.9-4.2c-2.6-1.9-5.17-4.02-7.72-6.38c-2.55-2.35-4.98-4.77-7.28-7.27
		c-2.3-2.5-4.2-4.85-5.7-7.05c2.2-1.4,5.25-2.1,9.15-2.1c1.1,0,1.95,0.1,2.55,0.3c2.6,4.2,5.75,8.53,9.45,12.98
		c3.7,4.45,7.45,8.53,11.25,12.23c-0.4,0.5-1.08,0.88-2.03,1.13C266.02,56.09,265.1,56.22,264.2,56.22z"/>
</g>
<g>
	<path class="st0" d="M359.66,161.56v-40.52c0-15.52-7.42-17.32-13-17.32c-2.88,0-5.62,0.96-8.38,2.93
		c-2.69,1.92-4.93,4.33-6.66,7.15v45.13l-1.01,0.58c-1.34,0.77-3,1.3-5.06,1.62c-1.9,0.29-3.72,0.44-5.41,0.44h-2v-40.52
		c0-6.05-1.16-10.53-3.45-13.31c-2.22-2.7-5.39-4.01-9.67-4.01c-3.42,0-6.4,1-9.11,3.07c-2.65,2.03-4.77,4.44-6.29,7.19v44.94
		l-1.01,0.58c-1.34,0.77-3,1.3-5.06,1.62c-1.9,0.29-3.72,0.44-5.41,0.44h-2V96.9l1.08-0.56c2.92-1.5,6.21-2.26,9.8-2.26h2v7.49
		c1.5-1.58,3.27-3.02,5.26-4.3c2.01-1.28,4.28-2.34,6.75-3.15c2.51-0.82,5.26-1.24,8.18-1.24c5.41,0,9.93,1.47,13.45,4.35
		c2.48,2.04,4.4,4.41,5.75,7.09c0.5-0.57,1.04-1.16,1.61-1.76c1.56-1.64,3.37-3.2,5.39-4.63c2.05-1.45,4.37-2.66,6.88-3.6
		c2.57-0.96,5.37-1.45,8.32-1.45c6.6,0,12.06,2.11,16.23,6.29c4.17,4.17,6.29,10.28,6.29,18.15v41.6l-1.01,0.58
		c-1.34,0.77-3,1.3-5.06,1.62c-1.9,0.29-3.72,0.44-5.41,0.44H359.66z"/>
	<path class="st0" d="M320.14,121.04c0-6.56-1.3-11.42-3.9-14.58c-2.6-3.16-6.34-4.74-11.22-4.74c-3.84,0-7.28,1.16-10.32,3.48
		c-3.04,2.32-5.4,5.08-7.08,8.28v44.28c-1.12,0.64-2.58,1.1-4.38,1.38c-1.8,0.28-3.5,0.42-5.1,0.42V98.12
		c2.64-1.36,5.6-2.04,8.88-2.04v11.16c0.88-1.36,2.02-2.78,3.42-4.26c1.4-1.48,3.04-2.82,4.92-4.02c1.88-1.2,3.98-2.18,6.3-2.94
		c2.32-0.76,4.84-1.14,7.56-1.14c4.96,0,9.02,1.3,12.18,3.9c3.16,2.6,5.3,5.74,6.42,9.42c0.96-1.28,2.18-2.7,3.66-4.26
		c1.48-1.56,3.18-3.02,5.1-4.38c1.92-1.36,4.06-2.48,6.42-3.36c2.36-0.88,4.9-1.32,7.62-1.32c6.08,0,11.02,1.9,14.82,5.7
		c3.8,3.8,5.7,9.38,5.7,16.74v40.44c-1.12,0.64-2.58,1.1-4.38,1.38c-1.8,0.28-3.5,0.42-5.1,0.42v-38.52c0-12.88-5-19.32-15-19.32
		c-3.28,0-6.46,1.1-9.54,3.3c-3.08,2.2-5.58,4.94-7.5,8.22v44.52c-1.12,0.64-2.58,1.1-4.38,1.38c-1.8,0.28-3.5,0.42-5.1,0.42V121.04
		z"/>
	<path class="st0" d="M417.1,162.76c-4.25,0-8.27-0.78-11.93-2.32c-3.68-1.54-6.94-3.8-9.68-6.71c-2.73-2.9-4.91-6.52-6.48-10.76
		c-1.56-4.2-2.34-9-2.34-14.25c0-4.87,0.85-9.53,2.54-13.86c1.68-4.33,4.01-8.15,6.92-11.36c2.92-3.22,6.4-5.81,10.33-7.72
		c3.98-1.92,8.29-2.9,12.81-2.9c4.86,0,8.96,0.84,12.19,2.5c3.23,1.66,5.83,3.84,7.73,6.49c1.86,2.6,3.18,5.5,3.92,8.63
		c0.71,3.02,1.07,6,1.07,8.86v0.61l-0.34,0.5c-0.79,1.18-1.84,2.21-3.13,3.07c-1.23,0.82-2.6,1.47-4.05,1.92l-0.18,0.06l-36.07,4.01
		c0.33,3.31,1.01,6.26,2.05,8.81c1.22,2.99,2.8,5.5,4.69,7.47c1.87,1.94,4.07,3.42,6.55,4.38c2.51,0.98,5.24,1.48,8.09,1.48
		c3.67,0,6.85-0.48,9.45-1.44c2.56-0.94,4.93-2.45,7.04-4.48l0.77-0.74l1.04,0.22c1.82,0.39,3.16,1.68,3.77,3.64l0.28,0.89
		l-0.5,0.79c-0.64,1-1.6,2.17-2.95,3.56c-1.36,1.4-3.16,2.77-5.34,4.05c-2.17,1.28-4.78,2.37-7.77,3.25
		C424.56,162.31,421.03,162.76,417.1,162.76z M416.14,102.28c-2.21,0-4.29,0.39-6.21,1.17c-1.86,0.76-3.5,1.95-4.89,3.54
		c-1.42,1.64-2.61,3.8-3.52,6.42c-0.74,2.13-1.21,4.66-1.41,7.56l29.86-3.07v-0.46c0-2.27-0.29-4.37-0.87-6.25
		c-0.56-1.8-1.41-3.38-2.54-4.68c-1.12-1.29-2.54-2.33-4.23-3.09C420.65,102.66,418.56,102.28,416.14,102.28z"/>
	<path class="st0" d="M398.26,127.76c0.24,4.32,1.02,8.1,2.34,11.34s3.02,5.94,5.1,8.1c2.08,2.16,4.5,3.78,7.26,4.86
		c2.76,1.08,5.7,1.62,8.82,1.62c3.92,0,7.3-0.52,10.14-1.56c2.84-1.04,5.42-2.68,7.74-4.92c1.12,0.24,1.88,1,2.28,2.28
		c-0.56,0.88-1.46,1.96-2.7,3.24c-1.24,1.28-2.88,2.52-4.92,3.72s-4.48,2.22-7.32,3.06c-2.84,0.84-6.14,1.26-9.9,1.26
		c-4,0-7.72-0.72-11.16-2.16c-3.44-1.44-6.44-3.52-9-6.24c-2.56-2.72-4.58-6.08-6.06-10.08c-1.48-4-2.22-8.52-2.22-13.56
		c0-4.64,0.8-9.02,2.4-13.14c1.6-4.12,3.78-7.7,6.54-10.74c2.76-3.04,6-5.46,9.72-7.26c3.72-1.8,7.7-2.7,11.94-2.7
		c4.56,0,8.32,0.76,11.28,2.28c2.96,1.52,5.3,3.48,7.02,5.88c1.72,2.4,2.92,5.04,3.6,7.92c0.68,2.88,1.02,5.68,1.02,8.4
		c-0.64,0.96-1.5,1.8-2.58,2.52s-2.26,1.28-3.54,1.68L398.26,127.76z M416.14,100.28c-2.48,0-4.8,0.44-6.96,1.32
		c-2.16,0.88-4.04,2.24-5.64,4.08c-1.6,1.84-2.9,4.2-3.9,7.08c-1,2.88-1.54,6.36-1.62,10.44l33.84-3.48c0.08-0.4,0.12-0.8,0.12-1.2
		c0-0.4,0-0.76,0-1.08c0-2.48-0.32-4.76-0.96-6.84c-0.64-2.08-1.62-3.88-2.94-5.4c-1.32-1.52-2.96-2.72-4.92-3.6
		C421.2,100.72,418.86,100.28,416.14,100.28z"/>
	<path class="st0" d="M511.06,192.88c-3.88,0-7.48-0.34-10.72-1c-3.32-0.68-6.25-1.75-8.7-3.17c-2.53-1.46-4.55-3.28-5.99-5.4
		c-1.5-2.21-2.27-4.83-2.27-7.79c0-2.31,0.46-4.38,1.35-6.18c0.87-1.74,2.03-3.27,3.45-4.55c1.37-1.24,2.91-2.29,4.59-3.12
		c1.53-0.77,3.08-1.37,4.64-1.8c-1.82-0.51-3.35-1.13-4.63-1.88c-3.39-1.99-5.19-5.18-5.19-9.23c0-1.73,0.37-3.39,1.09-4.93
		c0.69-1.48,1.63-2.83,2.77-4.02c1.09-1.14,2.33-2.18,3.68-3.09c0.21-0.14,0.41-0.28,0.62-0.41c-2.32-1.51-4.26-3.42-5.78-5.71
		c-2.21-3.32-3.34-7.39-3.34-12.09c0-3.57,0.77-6.97,2.3-10.11c1.51-3.11,3.64-5.85,6.32-8.15c2.65-2.26,5.77-4.08,9.3-5.39
		c3.53-1.32,7.38-1.99,11.44-1.99c1.44,0,2.82,0.09,4.1,0.26c1.26,0.17,2.48,0.38,3.64,0.63c0.24,0.05,0.53,0.08,0.84,0.08h1.62
		c3.94,0,5.41-0.78,5.94-1.24c0.89-0.78,1.3-1.69,1.3-2.88c0-0.71-0.13-1.3-0.37-1.77c-0.29-0.54-0.65-1-1.11-1.41l-1.66-1.46
		l1.61-1.51c2.85-2.67,6.3-4.02,10.25-4.02h0.76l0.57,0.51c0.93,0.83,1.7,1.93,2.3,3.26c0.59,1.33,0.89,2.84,0.89,4.47
		c0,4.05-1.65,7.21-4.91,9.4c-1.9,1.28-4.17,2.19-6.77,2.72c1.5,1.58,2.67,3.36,3.53,5.32c1.42,3.28,2.15,6.62,2.15,9.92
		c0,3.82-0.8,7.34-2.38,10.44c-1.56,3.07-3.68,5.74-6.32,7.95c-2.62,2.19-5.75,3.91-9.28,5.1c-3.51,1.18-7.25,1.78-11.14,1.78
		c-1.27,0-2.5-0.06-3.64-0.19c-0.93-0.1-1.87-0.22-2.83-0.35c-1.6,0.67-2.91,1.49-3.9,2.44c-0.9,0.87-1.31,1.73-1.31,2.71
		c0,1.08,0.28,2.18,2.29,2.92c2.2,0.81,5.55,1.33,9.97,1.56l12.59,0.6c3.96,0.17,7.39,0.82,10.19,1.94
		c2.83,1.13,5.17,2.59,6.95,4.32c1.8,1.76,3.14,3.76,3.96,5.95c0.8,2.14,1.21,4.31,1.21,6.46c0,3.64-0.95,7.02-2.82,10.05
		c-1.83,2.96-4.4,5.52-7.64,7.59c-3.16,2.02-6.97,3.62-11.31,4.75C520.94,192.31,516.16,192.88,511.06,192.88z M499.96,160.47
		c0.36,0.31,0.72,0.73,1.01,1.32c0.32,0.64,0.53,1.24,0.65,1.82l0.29,1.43l-1.28,0.71c-1.19,0.66-2.24,1.57-3.1,2.7
		c-0.76,1-1.15,2.53-1.15,4.55c0,1.68,0.41,3.09,1.26,4.32c0.89,1.29,2.18,2.4,3.81,3.28c1.73,0.94,3.85,1.63,6.3,2.07
		c2.55,0.46,5.4,0.69,8.47,0.69c6.35,0,11.11-1.09,14.15-3.23c2.86-2.02,4.25-4.43,4.25-7.37c0-3.02-1.03-5.4-3.16-7.25
		c-2.21-1.93-6.29-3.1-12.13-3.47l-12.47-0.72C504.27,161.14,501.98,160.86,499.96,160.47z M512.98,101.68
		c-1.74,0-3.37,0.3-4.84,0.88c-1.48,0.58-2.75,1.42-3.88,2.55c-1.12,1.12-2.02,2.53-2.67,4.18c-0.66,1.67-1,3.69-1,5.98
		c0,2.64,0.37,5.02,1.09,7.08c0.71,2.02,1.68,3.73,2.9,5.09c1.2,1.34,2.64,2.38,4.29,3.1c1.66,0.72,3.45,1.09,5.32,1.09
		c1.79,0,3.48-0.25,5.03-0.75c1.47-0.47,2.78-1.21,3.88-2.21c1.08-0.99,1.96-2.31,2.6-3.94c0.66-1.68,1-3.77,1-6.22
		c0-2.27-0.31-4.45-0.93-6.5c-0.61-2.01-1.51-3.82-2.69-5.38c-1.14-1.51-2.57-2.74-4.26-3.63
		C517.16,102.13,515.19,101.68,512.98,101.68z"/>
	<path class="st0" d="M511.54,138.44c-1.2,0-2.34-0.06-3.42-0.18s-2.18-0.26-3.3-0.42c-2.08,0.8-3.76,1.82-5.04,3.06
		c-1.28,1.24-1.92,2.62-1.92,4.14c0,2.32,1.2,3.92,3.6,4.8c2.4,0.88,5.92,1.44,10.56,1.68l12.6,0.6c3.76,0.16,6.94,0.76,9.54,1.8
		c2.6,1.04,4.7,2.34,6.3,3.9c1.6,1.56,2.76,3.3,3.48,5.22c0.72,1.92,1.08,3.84,1.08,5.76c0,3.28-0.84,6.28-2.52,9
		c-1.68,2.72-4.02,5.04-7.02,6.96s-6.58,3.42-10.74,4.5c-4.16,1.08-8.72,1.62-13.68,1.62c-3.76,0-7.2-0.32-10.32-0.96
		c-3.12-0.64-5.82-1.62-8.1-2.94c-2.28-1.32-4.06-2.92-5.34-4.8c-1.28-1.88-1.92-4.1-1.92-6.66c0-2,0.38-3.76,1.14-5.28
		c0.76-1.52,1.76-2.84,3-3.96c1.24-1.12,2.62-2.06,4.14-2.82c1.52-0.76,3.04-1.34,4.56-1.74c0.4,0.16,0.72,0.48,0.96,0.96
		c0.24,0.48,0.4,0.92,0.48,1.32c-1.44,0.8-2.68,1.88-3.72,3.24c-1.04,1.36-1.56,3.28-1.56,5.76c0,2.08,0.54,3.9,1.62,5.46
		c1.08,1.56,2.58,2.86,4.5,3.9c1.92,1.04,4.22,1.8,6.9,2.28c2.68,0.48,5.62,0.72,8.82,0.72c6.8,0,11.9-1.2,15.3-3.6
		c3.4-2.4,5.1-5.4,5.1-9s-1.28-6.52-3.84-8.76c-2.56-2.24-7-3.56-13.32-3.96l-12.48-0.72c-6-0.4-10.4-1.42-13.2-3.06
		c-2.8-1.64-4.2-4.14-4.2-7.5c0-1.44,0.3-2.8,0.9-4.08c0.6-1.28,1.4-2.44,2.4-3.48c1-1.04,2.12-1.98,3.36-2.82
		c1.24-0.84,2.46-1.54,3.66-2.1c-3.52-1.52-6.28-3.78-8.28-6.78c-2-3-3-6.66-3-10.98c0-3.28,0.7-6.36,2.1-9.24
		c1.4-2.88,3.34-5.38,5.82-7.5c2.48-2.12,5.38-3.8,8.7-5.04c3.32-1.24,6.9-1.86,10.74-1.86c1.36,0,2.64,0.08,3.84,0.24
		c1.2,0.16,2.36,0.36,3.48,0.6c0.4,0.08,0.82,0.12,1.26,0.12c0.44,0,0.98,0,1.62,0c3.52,0,5.94-0.58,7.26-1.74
		c1.32-1.16,1.98-2.62,1.98-4.38c0-1.04-0.2-1.94-0.6-2.7c-0.4-0.76-0.92-1.42-1.56-1.98c2.48-2.32,5.44-3.48,8.88-3.48
		c0.72,0.64,1.32,1.5,1.8,2.58c0.48,1.08,0.72,2.3,0.72,3.66c0,3.36-1.34,5.94-4.02,7.74c-2.68,1.8-6.18,2.78-10.5,2.94
		c3.04,2,5.22,4.52,6.54,7.56c1.32,3.04,1.98,6.08,1.98,9.12c0,3.52-0.72,6.7-2.16,9.54c-1.44,2.84-3.38,5.28-5.82,7.32
		c-2.44,2.04-5.32,3.62-8.64,4.74C518.72,137.88,515.22,138.44,511.54,138.44z M512.98,99.68c-2,0-3.86,0.34-5.58,1.02
		c-1.72,0.68-3.24,1.68-4.56,3s-2.36,2.94-3.12,4.86c-0.76,1.92-1.14,4.16-1.14,6.72c0,2.88,0.4,5.46,1.2,7.74
		c0.8,2.28,1.9,4.2,3.3,5.76c1.4,1.56,3.06,2.76,4.98,3.6s3.96,1.26,6.12,1.26c2,0,3.88-0.28,5.64-0.84
		c1.76-0.56,3.3-1.44,4.62-2.64c1.32-1.2,2.36-2.76,3.12-4.68c0.76-1.92,1.14-4.24,1.14-6.96c0-2.48-0.34-4.84-1.02-7.08
		c-0.68-2.24-1.68-4.24-3-6c-1.32-1.76-2.96-3.16-4.92-4.2C517.8,100.2,515.54,99.68,512.98,99.68z"/>
	<path class="st0" d="M572.86,162.52c-6.15,0-11.13-1.62-14.81-4.81c-3.76-3.26-5.67-7.65-5.67-13.03c0-5.53,2.12-10.23,6.31-13.97
		c4.08-3.64,10.72-6.23,20.31-7.92l12.63-2.23v-3c0-5.23-1.18-9.23-3.52-11.88c-2.3-2.61-5.72-3.88-10.44-3.88
		c-2.88,0-5.22,0.68-7.17,2.08c-1.74,1.25-2.59,3.1-2.59,5.64c0,0.96,0.31,1.79,0.96,2.54l1.04,1.22l-0.96,1.28
		c-0.92,1.23-2.29,2.28-4.19,3.23c-1.81,0.91-3.71,1.46-5.63,1.64l-0.93,0.09l-0.67-0.66c-0.49-0.49-1.04-1.17-1.67-2.07
		c-0.79-1.13-1.2-2.61-1.2-4.38c0-2.87,0.84-5.59,2.5-8.07c1.58-2.37,3.66-4.43,6.19-6.13c2.48-1.67,5.37-2.99,8.6-3.92
		c3.21-0.93,6.58-1.4,10.04-1.4c8.23,0,14.21,1.97,17.79,5.87c3.54,3.85,5.33,9.21,5.33,15.93v30.12c0,2.62,0.51,4.44,1.46,5.26
		c1.14,0.99,2.45,1.56,3.98,1.75l1.06,0.13l1.21,2.42l-0.56,0.94c-0.32,0.53-0.77,1.11-1.39,1.78c-0.59,0.63-1.24,1.24-1.94,1.81
		c-0.74,0.6-1.56,1.14-2.43,1.6c-0.91,0.48-1.74,0.81-2.54,1.01l-0.3,0.08l-0.31-0.02c-3.06-0.19-5.68-1.38-7.78-3.54
		c-1.07-1.09-1.9-2.37-2.47-3.81c-0.14,0.15-0.28,0.29-0.42,0.44c-1.4,1.44-3.09,2.76-5.03,3.92c-1.93,1.16-4.17,2.12-6.64,2.84
		C578.49,162.15,575.75,162.52,572.86,162.52z M577.89,131.41c-3.94,0.73-6.96,1.96-8.96,3.64c-1.82,1.53-2.71,3.74-2.71,6.75
		c0,3.43,0.97,5.93,2.97,7.67c2.08,1.81,4.54,2.69,7.51,2.69c3.74,0,6.95-0.86,9.52-2.55c2.49-1.64,4.26-3.66,5.4-6.19v-14.47
		L577.89,131.41z"/>
	<path class="st0" d="M610.54,154.28c-0.24,0.4-0.62,0.88-1.14,1.44c-0.52,0.56-1.1,1.1-1.74,1.62c-0.64,0.52-1.34,0.98-2.1,1.38
		c-0.76,0.4-1.46,0.68-2.1,0.84c-2.56-0.16-4.72-1.14-6.48-2.94c-1.76-1.8-2.72-4.18-2.88-7.14c-0.64,1.2-1.6,2.46-2.88,3.78
		c-1.28,1.32-2.82,2.52-4.62,3.6c-1.8,1.08-3.86,1.96-6.18,2.64c-2.32,0.68-4.84,1.02-7.56,1.02c-5.68,0-10.18-1.44-13.5-4.32
		c-3.32-2.88-4.98-6.72-4.98-11.52c0-4.96,1.88-9.12,5.64-12.48c3.76-3.36,10.2-5.84,19.32-7.44l14.28-2.52v-4.68
		c0-5.76-1.34-10.16-4.02-13.2c-2.68-3.04-6.66-4.56-11.94-4.56c-3.28,0-6.06,0.82-8.34,2.46c-2.28,1.64-3.42,4.06-3.42,7.26
		c0,1.44,0.48,2.72,1.44,3.84c-0.72,0.96-1.88,1.84-3.48,2.64c-1.6,0.8-3.24,1.28-4.92,1.44c-0.4-0.4-0.88-1-1.44-1.8
		c-0.56-0.8-0.84-1.88-0.84-3.24c0-2.48,0.72-4.8,2.16-6.96c1.44-2.16,3.32-4.02,5.64-5.58c2.32-1.56,5-2.78,8.04-3.66
		c3.04-0.88,6.2-1.32,9.48-1.32c7.68,0,13.12,1.74,16.32,5.22c3.2,3.48,4.8,8.34,4.8,14.58v30.12c0,3.28,0.72,5.54,2.16,6.78
		c1.44,1.24,3.12,1.98,5.04,2.22L610.54,154.28z M576.7,154.16c4.16,0,7.7-0.96,10.62-2.88c2.92-1.92,5.02-4.4,6.3-7.44v-17.28
		l-16.08,2.88c-4.32,0.8-7.62,2.16-9.9,4.08c-2.28,1.92-3.42,4.68-3.42,8.28c0,4,1.22,7.06,3.66,9.18
		C570.32,153.1,573.26,154.16,576.7,154.16z"/>
	<path class="st0" d="M707.3,161.56v-40.52c0-15.52-7.42-17.32-13-17.32c-2.88,0-5.62,0.96-8.38,2.93
		c-2.69,1.92-4.93,4.33-6.66,7.15v45.13l-1.01,0.58c-1.34,0.77-3,1.3-5.06,1.62c-1.9,0.29-3.72,0.44-5.41,0.44h-2v-40.52
		c0-6.05-1.16-10.53-3.45-13.31c-2.22-2.7-5.39-4.01-9.67-4.01c-3.42,0-6.4,1-9.11,3.07c-2.65,2.03-4.77,4.44-6.29,7.19v44.94
		l-1.01,0.58c-1.34,0.77-3,1.3-5.06,1.62c-1.9,0.29-3.72,0.44-5.41,0.44h-2V96.9l1.08-0.56c2.92-1.5,6.21-2.26,9.8-2.26h2v7.49
		c1.5-1.58,3.27-3.02,5.26-4.3c2.01-1.28,4.28-2.34,6.75-3.15c2.51-0.82,5.26-1.24,8.18-1.24c5.41,0,9.93,1.47,13.45,4.35
		c2.48,2.04,4.4,4.41,5.75,7.09c0.5-0.57,1.04-1.16,1.61-1.76c1.56-1.64,3.37-3.2,5.39-4.63c2.05-1.45,4.37-2.66,6.88-3.6
		c2.57-0.96,5.37-1.45,8.32-1.45c6.6,0,12.06,2.11,16.23,6.29c4.17,4.17,6.29,10.28,6.29,18.15v41.6l-1.01,0.58
		c-1.34,0.77-3,1.3-5.06,1.62c-1.9,0.29-3.72,0.44-5.41,0.44H707.3z"/>
	<path class="st0" d="M667.78,121.04c0-6.56-1.3-11.42-3.9-14.58c-2.6-3.16-6.34-4.74-11.22-4.74c-3.84,0-7.28,1.16-10.32,3.48
		c-3.04,2.32-5.4,5.08-7.08,8.28v44.28c-1.12,0.64-2.58,1.1-4.38,1.38c-1.8,0.28-3.5,0.42-5.1,0.42V98.12
		c2.64-1.36,5.6-2.04,8.88-2.04v11.16c0.88-1.36,2.02-2.78,3.42-4.26c1.4-1.48,3.04-2.82,4.92-4.02c1.88-1.2,3.98-2.18,6.3-2.94
		c2.32-0.76,4.84-1.14,7.56-1.14c4.96,0,9.02,1.3,12.18,3.9c3.16,2.6,5.3,5.74,6.42,9.42c0.96-1.28,2.18-2.7,3.66-4.26
		c1.48-1.56,3.18-3.02,5.1-4.38c1.92-1.36,4.06-2.48,6.42-3.36c2.36-0.88,4.9-1.32,7.62-1.32c6.08,0,11.02,1.9,14.82,5.7
		c3.8,3.8,5.7,9.38,5.7,16.74v40.44c-1.12,0.64-2.58,1.1-4.38,1.38c-1.8,0.28-3.5,0.42-5.1,0.42v-38.52c0-12.88-5-19.32-15-19.32
		c-3.28,0-6.46,1.1-9.54,3.3c-3.08,2.2-5.58,4.94-7.5,8.22v44.52c-1.12,0.64-2.58,1.1-4.38,1.38c-1.8,0.28-3.5,0.42-5.1,0.42V121.04
		z"/>
	<path class="st0" d="M764.74,162.76c-4.25,0-8.27-0.78-11.93-2.32c-3.68-1.54-6.94-3.8-9.68-6.71c-2.73-2.9-4.91-6.52-6.48-10.76
		c-1.56-4.2-2.34-9-2.34-14.25c0-4.87,0.85-9.53,2.54-13.86c1.68-4.33,4.01-8.15,6.92-11.36c2.92-3.22,6.4-5.81,10.33-7.72
		c3.98-1.92,8.29-2.9,12.81-2.9c4.86,0,8.96,0.84,12.19,2.5c3.23,1.66,5.83,3.84,7.73,6.49c1.86,2.6,3.18,5.5,3.92,8.63
		c0.71,3.02,1.07,6,1.07,8.86v0.61l-0.34,0.5c-0.79,1.18-1.84,2.21-3.13,3.07c-1.23,0.82-2.6,1.47-4.05,1.92l-0.18,0.06l-36.07,4.01
		c0.33,3.31,1.01,6.26,2.05,8.81c1.22,2.99,2.8,5.5,4.69,7.47c1.87,1.94,4.07,3.42,6.55,4.38c2.51,0.98,5.24,1.48,8.09,1.48
		c3.67,0,6.85-0.48,9.45-1.44c2.56-0.94,4.93-2.45,7.04-4.48l0.77-0.74l1.04,0.22c1.82,0.39,3.16,1.68,3.77,3.64l0.28,0.89
		l-0.5,0.79c-0.64,1-1.6,2.17-2.95,3.56c-1.36,1.4-3.16,2.77-5.34,4.05c-2.17,1.28-4.78,2.37-7.77,3.25
		C772.19,162.31,768.67,162.76,764.74,162.76z M763.78,102.28c-2.21,0-4.29,0.39-6.21,1.17c-1.86,0.76-3.5,1.95-4.89,3.54
		c-1.42,1.64-2.61,3.8-3.52,6.42c-0.74,2.13-1.21,4.66-1.41,7.56l29.86-3.07v-0.46c0-2.27-0.29-4.37-0.87-6.25
		c-0.56-1.8-1.41-3.38-2.54-4.68c-1.12-1.29-2.54-2.33-4.23-3.09C768.29,102.66,766.2,102.28,763.78,102.28z"/>
	<path class="st0" d="M745.9,127.76c0.24,4.32,1.02,8.1,2.34,11.34s3.02,5.94,5.1,8.1c2.08,2.16,4.5,3.78,7.26,4.86
		c2.76,1.08,5.7,1.62,8.82,1.62c3.92,0,7.3-0.52,10.14-1.56c2.84-1.04,5.42-2.68,7.74-4.92c1.12,0.24,1.88,1,2.28,2.28
		c-0.56,0.88-1.46,1.96-2.7,3.24c-1.24,1.28-2.88,2.52-4.92,3.72s-4.48,2.22-7.32,3.06c-2.84,0.84-6.14,1.26-9.9,1.26
		c-4,0-7.72-0.72-11.16-2.16c-3.44-1.44-6.44-3.52-9-6.24c-2.56-2.72-4.58-6.08-6.06-10.08c-1.48-4-2.22-8.52-2.22-13.56
		c0-4.64,0.8-9.02,2.4-13.14c1.6-4.12,3.78-7.7,6.54-10.74c2.76-3.04,6-5.46,9.72-7.26c3.72-1.8,7.7-2.7,11.94-2.7
		c4.56,0,8.32,0.76,11.28,2.28c2.96,1.52,5.3,3.48,7.02,5.88c1.72,2.4,2.92,5.04,3.6,7.92c0.68,2.88,1.02,5.68,1.02,8.4
		c-0.64,0.96-1.5,1.8-2.58,2.52s-2.26,1.28-3.54,1.68L745.9,127.76z M763.78,100.28c-2.48,0-4.8,0.44-6.96,1.32
		c-2.16,0.88-4.04,2.24-5.64,4.08c-1.6,1.84-2.9,4.2-3.9,7.08c-1,2.88-1.54,6.36-1.62,10.44l33.84-3.48c0.08-0.4,0.12-0.8,0.12-1.2
		c0-0.4,0-0.76,0-1.08c0-2.48-0.32-4.76-0.96-6.84c-0.64-2.08-1.62-3.88-2.94-5.4c-1.32-1.52-2.96-2.72-4.92-3.6
		C768.84,100.72,766.5,100.28,763.78,100.28z"/>
</g>
</svg>
